<?xml version="1.0" standalone="no"?>
<!DOCTYPE svg PUBLIC "-//W3C//DTD SVG 20010904//EN"
 "http://www.w3.org/TR/2001/REC-SVG-20010904/DTD/svg10.dtd">
<svg version="1.0" xmlns="http://www.w3.org/2000/svg"
 width="256.000000pt" height="256.000000pt" viewBox="0 0 256.000000 256.000000"
 preserveAspectRatio="xMidYMid meet">
<metadata>
Created by potrace 1.14, written by Peter Selinger 2001-2017
</metadata>
<g transform="translate(0.000000,256.000000) scale(0.100000,-0.100000)"
fill="#000000" stroke="none">
<path d="M1566 2514 c-3 -9 -11 -12 -18 -8 -8 5 -7 0 2 -11 14 -17 14 -18 -9
-6 -15 8 -21 9 -17 2 4 -6 2 -11 -3 -11 -6 0 -10 -3 -10 -7 3 -20 -2 -34 -10
-29 -5 3 -8 -2 -7 -12 0 -10 -6 -17 -15 -16 -10 1 -16 -5 -14 -15 1 -9 -7 -27
-19 -40 -11 -13 -15 -21 -7 -16 10 6 12 4 7 -4 -5 -7 -15 -10 -23 -7 -8 3 -11
1 -8 -4 3 -5 -3 -18 -15 -30 -11 -11 -20 -23 -20 -26 0 -4 -8 -13 -17 -21 -12
-9 -13 -12 -3 -8 8 4 4 -3 -10 -15 -14 -12 -19 -19 -11 -15 9 5 8 -1 -4 -19
-10 -14 -25 -26 -34 -26 -14 0 -14 -2 -1 -10 13 -8 12 -10 -3 -10 -10 0 -15
-4 -12 -10 3 -5 0 -10 -7 -10 -9 0 -9 -3 2 -10 15 -9 13 -11 -12 -14 -7 0 -15
-12 -18 -26 -4 -14 -13 -24 -20 -22 -8 2 -10 -3 -6 -14 5 -12 2 -15 -10 -10
-15 6 -15 4 -3 -11 8 -9 9 -14 3 -10 -6 4 -20 -3 -30 -16 -12 -13 -13 -17 -3
-9 13 9 16 9 16 -2 0 -8 -9 -13 -22 -12 -14 2 -21 -3 -21 -15 0 -10 5 -15 11
-11 6 4 2 -1 -8 -10 -11 -10 -24 -15 -30 -11 -6 4 -8 0 -4 -10 4 -10 1 -17 -6
-17 -8 0 -6 -4 3 -10 11 -7 11 -10 2 -10 -7 0 -10 -4 -7 -10 4 -6 -1 -7 -11
-3 -12 4 -15 3 -10 -5 4 -7 2 -12 -3 -12 -6 0 -10 -5 -8 -11 3 -16 -52 -18
-65 -2 -7 9 -16 10 -28 3 -25 -13 -32 -13 -25 3 4 6 -3 1 -15 -13 -12 -14 -19
-19 -15 -12 3 6 1 12 -5 12 -6 0 -8 5 -4 12 4 7 3 8 -5 4 -6 -4 -9 -11 -6 -16
3 -4 -2 -11 -11 -14 -23 -9 -24 -8 -19 12 3 9 -1 4 -9 -13 -8 -16 -15 -25 -16
-19 0 5 -11 10 -24 10 -14 0 -22 -4 -20 -8 3 -4 0 -8 -6 -8 -6 0 -8 -4 -5 -10
3 -5 1 -10 -4 -10 -6 0 -11 6 -11 13 -1 6 -8 1 -16 -13 -8 -14 -13 -18 -11 -9
3 9 -1 16 -8 16 -8 0 -11 -7 -7 -16 3 -9 2 -13 -3 -9 -4 4 -15 2 -23 -5 -13
-10 -14 -9 -7 2 6 10 4 12 -4 7 -7 -5 -10 -15 -6 -23 4 -13 3 -14 -10 -3 -10
8 -15 9 -15 2 0 -7 -7 -9 -17 -5 -10 4 -14 2 -10 -4 4 -6 -4 -14 -18 -17 -15
-4 -25 -14 -25 -24 0 -13 -2 -14 -9 -4 -7 11 -9 11 -14 -1 -3 -9 -16 -13 -32
-12 -21 3 -24 1 -15 -10 8 -10 8 -15 -1 -21 -8 -4 -9 -3 -5 4 4 7 3 12 -2 12
-6 0 -12 -7 -16 -15 -3 -9 -12 -12 -22 -8 -14 5 -16 3 -11 -11 4 -9 3 -15 -2
-11 -5 3 -13 1 -16 -5 -5 -8 -11 -7 -21 1 -11 9 -14 8 -14 -6 0 -15 -2 -16
-17 -4 -9 8 -14 10 -12 4 8 -14 -24 -42 -45 -39 -13 2 -15 -1 -6 -11 10 -11 8
-13 -9 -10 -11 2 -24 -2 -28 -9 -11 -18 -51 -38 -63 -31 -5 3 -7 -4 -5 -15 2
-11 0 -18 -6 -15 -5 4 -9 -1 -9 -11 0 -13 -3 -14 -14 -5 -11 9 -13 7 -12 -11
0 -13 -4 -22 -11 -21 -9 2 -10 -4 -3 -22 5 -14 6 -27 0 -30 -5 -3 -7 -15 -5
-27 3 -11 1 -17 -3 -14 -4 4 -7 13 -7 19 0 5 -7 12 -15 14 -13 4 -13 3 0 -6 8
-6 12 -11 8 -11 -4 0 -3 -11 2 -25 7 -17 6 -25 -1 -25 -8 0 -8 -4 -1 -13 9
-10 7 -19 -5 -37 -9 -13 -11 -20 -5 -16 7 4 12 2 12 -3 0 -6 -6 -11 -12 -11
-9 0 -8 -4 2 -11 11 -8 12 -12 3 -16 -9 -3 -10 -10 -3 -24 6 -10 7 -19 2 -19
-5 0 -9 -7 -9 -15 0 -8 4 -15 9 -15 5 0 6 -5 3 -10 -4 -6 -11 -8 -16 -5 -5 3
-6 -2 -2 -11 5 -13 3 -15 -7 -9 -8 5 -11 4 -6 -3 4 -6 12 -10 19 -8 7 1 9 1 4
-1 -4 -3 -5 -8 -2 -13 3 -5 -2 -16 -11 -24 -8 -9 -11 -16 -5 -16 11 0 10 -21
-2 -50 -8 -18 -5 -40 7 -59 6 -9 5 -12 0 -8 -6 3 -16 -3 -23 -15 -7 -11 -8
-17 -3 -14 6 3 12 -1 15 -9 4 -10 1 -12 -11 -8 -14 6 -15 4 -5 -8 10 -12 10
-18 0 -29 -9 -10 -9 -11 1 -6 18 11 15 -5 -5 -21 -12 -8 -13 -12 -4 -11 7 2
16 -3 19 -11 3 -10 0 -11 -9 -5 -11 6 -10 3 1 -11 9 -11 10 -16 3 -11 -14 8
-15 2 -15 -39 0 -40 1 -47 12 -40 7 4 7 -3 0 -20 -7 -17 -7 -24 0 -20 6 3 10
2 10 -4 0 -5 -6 -12 -12 -14 -7 -3 -2 -6 11 -6 17 -1 21 -5 17 -17 -3 -8 -2
-12 4 -9 6 4 18 -2 28 -11 16 -17 16 -17 0 -11 -10 3 -20 1 -24 -5 -4 -7 -3
-8 4 -4 8 5 12 -1 12 -14 0 -12 -4 -18 -11 -15 -6 4 -9 0 -7 -11 2 -11 -7 -23
-22 -31 -14 -7 -19 -13 -13 -13 7 0 12 -11 11 -24 -1 -14 -6 -22 -10 -20 -4 3
-8 -9 -8 -25 0 -17 -5 -31 -11 -31 -5 0 -8 -4 -5 -9 4 -5 0 -12 -6 -14 -9 -4
-9 -6 1 -6 11 -1 10 -5 -5 -16 -13 -10 -14 -14 -5 -15 11 0 11 -3 0 -17 -9
-11 -10 -14 -2 -9 9 5 11 2 7 -8 -3 -9 -9 -14 -13 -12 -4 3 -6 -11 -6 -30 1
-29 -1 -32 -13 -21 -13 10 -14 9 -3 -12 7 -13 8 -21 3 -17 -6 3 -13 2 -17 -4
-3 -5 0 -10 7 -10 9 0 9 -3 -2 -10 -9 -6 -11 -10 -3 -10 7 0 10 -7 6 -17 -5
-15 -3 -15 11 2 10 11 14 14 11 7 -6 -11 -3 -11 13 -1 12 7 18 17 15 22 -3 5
0 7 8 5 8 -3 20 2 27 11 8 10 11 10 6 2 -5 -10 -3 -12 5 -7 7 5 10 15 6 23 -4
13 -3 14 9 4 11 -9 16 -9 22 0 5 8 3 9 -6 4 -9 -6 -11 -4 -6 4 5 7 15 10 23 6
13 -4 14 -3 4 9 -11 13 -9 15 8 11 11 -2 20 -1 20 3 -4 22 4 30 25 28 19 -2
23 1 21 15 -2 10 1 22 7 25 6 4 8 3 5 -3 -4 -6 0 -14 9 -17 8 -3 13 -2 10 2
-3 5 4 15 15 22 10 8 19 20 19 28 0 7 5 10 12 6 8 -5 9 -2 4 11 -5 14 -3 15 6
8 10 -8 20 0 42 31 25 35 26 38 6 21 l-24 -20 20 26 c10 15 22 25 27 22 4 -2
7 1 7 7 0 6 5 8 13 4 9 -6 9 -5 0 8 -7 8 -10 18 -6 21 10 11 41 8 49 -5 4 -7
3 -8 -4 -4 -7 4 -12 2 -12 -3 0 -6 4 -11 9 -11 5 0 12 -7 15 -16 3 -8 2 -12
-4 -9 -6 3 -7 -1 -4 -9 3 -9 10 -16 16 -16 5 0 6 -6 2 -13 -5 -7 -1 -7 12 3
10 8 16 10 12 6 -4 -5 -3 -15 4 -23 9 -11 7 -12 -8 -8 -10 4 -7 -1 9 -10 15
-8 27 -18 27 -21 0 -3 -5 -2 -12 2 -7 4 -8 3 -4 -5 6 -9 11 -9 23 1 13 10 18
9 32 -8 15 -19 65 -29 54 -11 -3 5 -12 6 -20 3 -8 -4 -11 -1 -8 5 4 6 13 8 21
5 7 -3 16 -1 19 5 4 5 11 6 17 3 8 -5 9 -1 4 11 -5 14 -4 16 7 6 12 -9 14 -6
13 15 -1 19 5 29 21 35 13 5 22 5 22 1 -4 -26 2 -34 15 -23 11 9 16 9 22 0 4
-8 3 -9 -4 -5 -7 4 -12 1 -12 -9 0 -9 4 -13 10 -10 5 3 10 1 10 -4 0 -6 7 -11
16 -11 8 0 12 -5 9 -10 -9 -14 8 -12 24 2 11 11 12 10 6 -1 -6 -11 -2 -13 18
-9 17 3 24 1 20 -8 -2 -6 1 -15 8 -20 7 -4 10 -3 6 3 -4 6 0 14 9 17 8 3 13 2
10 -2 -3 -5 1 -9 9 -9 8 0 12 4 9 9 -4 5 0 8 8 6 17 -4 70 37 61 46 -4 4 -16
-3 -26 -16 l-19 -23 15 25 c8 14 20 24 26 22 6 -1 11 2 11 7 0 5 11 4 24 -2
13 -7 23 -14 21 -17 -2 -3 5 -7 16 -7 18 -2 19 1 8 15 -7 9 0 5 15 -10 28 -30
47 -38 26 -13 -7 9 -10 18 -6 22 3 4 12 -2 19 -12 13 -17 44 -20 134 -13 6 1
9 7 6 15 -4 9 0 11 13 6 10 -4 15 -2 11 4 -3 5 0 10 8 10 8 0 12 -4 10 -8 -3
-4 2 -10 11 -13 22 -8 26 -8 20 3 -4 5 2 7 13 4 10 -3 24 -14 30 -26 6 -12 9
-14 7 -5 -4 12 0 16 15 13 10 -2 19 2 19 8 1 7 10 1 20 -12 11 -13 20 -18 20
-11 0 9 4 9 17 -1 11 -10 14 -10 9 -1 -8 13 6 17 18 5 4 -4 20 -8 37 -8 23 -1
28 3 24 15 -5 11 -3 12 6 3 6 -6 18 -9 27 -6 11 5 13 3 7 -8 -8 -12 -6 -12 8
0 14 11 17 11 17 0 0 -11 2 -11 9 0 8 13 12 13 27 0 16 -13 16 -12 4 11 -11
22 -11 23 1 13 18 -15 72 -25 64 -12 -4 5 1 9 9 9 10 0 13 -6 10 -18 -5 -15
-5 -16 5 0 6 9 21 15 35 14 19 -2 23 1 20 18 -3 12 -1 15 2 8 5 -10 9 -10 22
0 13 11 15 11 8 -2 -4 -9 -1 -8 7 2 15 19 32 25 22 8 -3 -6 1 -7 9 -4 9 3 14
9 12 13 -3 4 4 8 15 8 12 1 17 -3 13 -9 -5 -7 -2 -8 5 -4 7 5 10 15 6 24 -5
13 -3 13 13 -2 18 -16 21 -16 36 -1 12 12 16 13 16 3 0 -8 3 -9 8 -3 4 6 18
11 31 13 17 3 21 0 15 -10 -4 -7 3 -4 15 6 22 20 22 20 16 0 -6 -16 -5 -17 7
-4 13 16 91 23 82 8 -3 -4 -10 -5 -16 -2 -7 4 -8 2 -4 -5 6 -9 13 -8 31 3 17
12 26 13 31 4 5 -7 3 -8 -6 -3 -9 5 -11 4 -6 -3 5 -8 13 -9 25 -2 12 6 22 5
31 -3 10 -9 11 -9 6 1 -4 6 -2 12 3 12 6 0 11 -6 11 -12 0 -8 3 -9 8 -3 11 15
32 17 32 3 0 -9 4 -8 10 2 5 8 10 10 10 5 0 -6 9 -11 20 -12 11 -1 18 3 14 8
-7 12 19 7 28 -6 5 -6 8 -5 8 4 0 7 6 11 13 8 8 -3 14 3 14 14 1 12 -3 17 -9
13 -6 -4 -8 -2 -4 4 3 6 15 9 26 7 16 -3 19 -1 11 13 -6 11 -4 20 7 30 12 10
13 11 2 6 -12 -6 -13 -4 -2 7 16 17 16 32 0 23 -10 -6 -10 -5 -1 8 7 8 9 19 5
23 -4 5 -2 5 5 1 6 -3 14 -2 18 4 3 5 1 10 -4 10 -6 0 -11 4 -11 9 0 5 10 7
23 4 15 -3 18 -2 9 5 -13 9 -25 62 -13 60 19 -2 24 4 11 12 -13 9 -13 10 0 10
13 0 13 1 0 10 -10 6 -11 10 -2 10 6 0 12 5 12 11 0 5 -6 7 -12 3 -9 -6 -9 -3
1 9 7 9 11 24 7 32 -3 8 0 15 6 15 6 0 4 8 -5 18 -10 10 -14 22 -10 26 5 4 8
11 9 14 2 17 17 41 23 38 3 -3 7 17 7 44 0 27 -3 47 -7 45 -3 -3 -5 -16 -4
-30 2 -17 -1 -23 -8 -19 -9 5 -9 3 0 -6 9 -10 9 -16 -2 -26 -17 -18 -31 -18
-16 -1 6 8 9 23 6 36 -2 14 0 19 7 15 8 -5 9 -1 5 10 -4 9 0 28 9 42 14 21 14
24 1 18 -8 -3 -18 0 -23 7 -4 8 -3 10 4 5 17 -10 15 4 -4 25 -12 13 -12 19 -3
25 7 4 10 3 5 -4 -3 -6 -2 -13 3 -16 5 -4 8 1 7 10 -1 8 -9 20 -17 25 -11 7
-11 9 4 9 21 0 22 14 3 33 -11 11 -12 17 -3 27 9 10 9 11 0 6 -6 -3 -14 -2
-17 3 -3 5 1 12 10 15 16 6 16 7 -31 60 -29 33 -33 45 -8 25 11 -9 14 -10 9
-2 -4 7 -16 18 -28 24 -16 9 -19 8 -13 -3 3 -7 -1 -4 -9 6 -9 11 -16 15 -16 8
0 -11 -30 -9 -53 4 -9 6 -9 5 0 -7 10 -13 10 -16 -2 -16 -14 0 -19 11 -16 31
1 5 -5 4 -13 -4 -13 -10 -19 -10 -33 1 -11 10 -14 10 -9 2 8 -14 -6 -18 -18
-6 -9 10 -37 13 -31 4 2 -4 -3 -8 -11 -8 -9 0 -13 6 -10 14 3 8 2 11 -3 8 -5
-3 -12 -1 -16 5 -4 6 -13 7 -23 1 -21 -10 -45 -3 -36 11 4 6 10 5 16 -3 8 -12
9 -12 6 0 -2 8 -14 15 -26 16 -11 1 -19 -2 -16 -6 2 -4 -4 -7 -15 -6 -15 1
-17 4 -9 14 8 11 7 12 -6 7 -12 -4 -23 1 -33 16 -11 15 -18 19 -26 11 -15 -15
-27 -14 -27 3 0 10 -7 12 -22 8 -18 -4 -20 -2 -15 19 5 22 5 22 -7 6 -12 -16
-15 -16 -29 -2 -9 8 -23 15 -31 15 -9 0 -16 5 -16 11 0 5 5 7 12 3 7 -4 8 -3
4 5 -5 8 -12 9 -20 2 -8 -7 -15 -4 -24 10 -10 16 -16 17 -33 8 -19 -10 -20 -9
-8 13 6 13 8 20 4 16 -5 -4 -15 -2 -23 5 -13 9 -14 9 -8 0 4 -8 1 -13 -8 -13
-9 0 -15 3 -15 8 3 19 -2 32 -12 32 -7 0 -18 8 -25 18 -13 16 -14 16 -8 -1 6
-17 5 -18 -14 -6 -11 7 -18 18 -14 24 3 5 -3 3 -13 -5 -11 -9 -16 -10 -11 -2
7 11 -6 16 -41 15 -7 -1 -10 3 -7 8 3 5 -2 9 -11 9 -9 0 -14 4 -11 9 3 5 -2
12 -12 16 -28 13 -42 14 -42 4 0 -5 -5 -9 -11 -9 -5 0 -7 5 -4 10 3 6 -5 10
-19 10 -19 0 -24 4 -21 19 2 13 -1 18 -10 15 -7 -3 -16 0 -20 6 -5 8 -11 8
-21 -1 -12 -10 -13 -9 -8 5 4 9 3 16 -2 15 -23 -4 -35 2 -28 14 5 7 0 6 -11
-3 -10 -8 -16 -10 -13 -5 4 6 -3 17 -15 25 -21 12 -21 12 -7 -5 14 -17 14 -17
-6 -7 -11 6 -27 19 -35 28 -8 10 -9 15 -3 11 7 -4 14 5 18 24 3 17 10 28 15
24 5 -3 12 -1 16 5 3 5 1 10 -5 10 -6 0 -8 5 -5 10 4 6 10 8 14 6 4 -3 8 1 9
9 1 8 3 22 4 30 1 12 4 12 17 2 12 -9 13 -9 7 1 -5 8 -1 12 11 12 15 0 16 2 3
10 -12 7 -12 10 -1 10 8 0 11 6 7 16 -3 8 -2 13 3 10 14 -9 54 41 47 60 -6 15
-4 15 11 3 9 -8 14 -9 10 -2 -11 19 14 65 32 58 8 -3 12 -3 8 1 -4 4 -2 13 5
21 6 7 8 16 4 20 -3 4 4 17 16 30 17 19 24 21 37 10 12 -10 13 -9 6 3 -15 24
-14 40 1 40 8 0 14 7 14 16 0 8 4 13 9 9 6 -3 8 4 6 15 -2 11 0 18 6 15 9 -6
14 9 9 30 -1 5 1 7 5 3 4 -4 14 0 23 8 13 14 13 17 1 25 -11 7 -10 9 4 9 12 0
16 4 11 13 -5 7 -1 7 12 -3 10 -8 16 -10 11 -5 -4 4 1 17 10 28 10 11 13 18 8
14 -6 -3 -11 2 -11 12 0 10 6 18 13 18 7 0 10 -4 7 -8 -2 -4 1 -11 8 -15 7 -4
10 -4 6 1 -4 4 -2 15 5 23 9 13 9 14 0 8 -8 -4 -13 -1 -13 8 0 9 -4 16 -10 16
-5 0 -10 5 -10 11 0 5 5 7 12 3 7 -4 8 -3 4 5 -6 9 -11 9 -22 0 -12 -10 -13
-9 -8 5 5 12 2 15 -10 10 -12 -5 -15 -2 -9 12 5 14 3 16 -12 11 -16 -7 -16 -5
-4 10 8 9 9 14 2 10 -7 -4 -16 0 -22 10 -10 17 -10 17 -11 -2 -1 -11 -4 -14
-7 -7 -2 6 -10 9 -16 5 -6 -4 -8 0 -4 10 4 12 2 14 -10 10 -12 -5 -14 -3 -8 6
5 10 2 11 -14 6 -16 -5 -20 -3 -15 9 3 9 4 16 1 16 -3 0 -8 -7 -11 -16z m-96
-568 c0 -2 -7 -9 -15 -16 -13 -11 -14 -10 -9 4 5 14 24 23 24 12z m-460 -116
c0 -5 -5 -10 -11 -10 -5 0 -7 5 -4 10 3 6 8 10 11 10 2 0 4 -4 4 -10z m575
-240 c3 -5 1 -10 -4 -10 -6 0 -11 5 -11 10 0 6 2 10 4 10 3 0 8 -4 11 -10z
m619 -298 c3 -5 -1 -9 -9 -9 -8 0 -12 4 -9 9 3 4 7 8 9 8 2 0 6 -4 9 -8z m221
-42 c-3 -5 -14 -10 -23 -9 -14 0 -13 2 3 9 27 11 27 11 20 0z m75 -70 c6 -11
8 -20 6 -20 -3 0 -10 9 -16 20 -6 11 -8 20 -6 20 3 0 10 -9 16 -20z m40 -214
c0 -2 -7 -7 -16 -10 -8 -3 -12 -2 -9 4 6 10 25 14 25 6z m-734 -608 c5 4 5 3
1 -2 -12 -15 -34 -15 -34 0 0 9 4 11 12 4 7 -5 16 -6 21 -2z"/>
<path d="M1435 2380 c-3 -5 -1 -10 4 -10 6 0 11 5 11 10 0 6 -2 10 -4 10 -3 0
-8 -4 -11 -10z"/>
<path d="M1559 2083 c-13 -17 -13 -17 6 -3 11 8 22 16 24 17 2 2 0 3 -6 3 -6
0 -17 -8 -24 -17z"/>
<path d="M1390 1819 c0 -5 5 -7 10 -4 6 3 10 8 10 11 0 2 -4 4 -10 4 -5 0 -10
-5 -10 -11z"/>
<path d="M456 1613 c-6 -14 -5 -15 5 -6 7 7 10 15 7 18 -3 3 -9 -2 -12 -12z"/>
<path d="M125 989 c-4 -6 -5 -12 -2 -15 2 -3 7 2 10 11 7 17 1 20 -8 4z"/>
<path d="M2540 830 c-9 -6 -10 -10 -3 -10 6 0 15 5 18 10 8 12 4 12 -15 0z"/>
<path d="M2525 801 c-3 -5 -2 -12 3 -15 5 -3 9 1 9 9 0 17 -3 19 -12 6z"/>
<path d="M1350 330 c-9 -6 -10 -10 -3 -10 6 0 15 5 18 10 8 12 4 12 -15 0z"/>
<path d="M1430 319 c0 -5 5 -7 10 -4 6 3 10 8 10 11 0 2 -4 4 -10 4 -5 0 -10
-5 -10 -11z"/>
<path d="M570 316 c0 -2 7 -9 15 -16 13 -11 14 -10 9 4 -5 14 -24 23 -24 12z"/>
</g>
</svg>
